<?xml version="1.0" encoding="iso-8859-1"?>
<!-- Generator: Adobe Illustrator 19.0.0, SVG Export Plug-In . SVG Version: 6.00 Build 0)  -->
<svg version="1.1" id="Layer_1" xmlns="http://www.w3.org/2000/svg" xmlns:xlink="http://www.w3.org/1999/xlink" x="0px" y="0px"
	 viewBox="0 0 512 512" style="enable-background:new 0 0 512 512;" xml:space="preserve">
<path style="fill:#FFFFFF;" d="M256,504C119.032,504,8,392.968,8,256S119.032,8,256,8s248,111.032,248,248
	C503.848,392.904,392.904,503.848,256,504z"/>
<path d="M256,16c132.552,0,240,107.448,240,240S388.552,496,256,496S16,388.552,16,256C16.152,123.512,123.512,16.152,256,16 M256,0
	C114.616,0,0,114.616,0,256s114.616,256,256,256s256-114.616,256-256S397.384,0,256,0z"/>
<g>
	<rect x="244" y="175.976" style="fill:#E21B1B;" width="24" height="160.08"/>
	<rect x="175.976" y="244" style="fill:#E21B1B;" width="160.08" height="24"/>
</g>
<g>
</g>
<g>
</g>
<g>
</g>
<g>
</g>
<g>
</g>
<g>
</g>
<g>
</g>
<g>
</g>
<g>
</g>
<g>
</g>
<g>
</g>
<g>
</g>
<g>
</g>
<g>
</g>
<g>
</g>
</svg>
